<?xml version="1.0" encoding="UTF-8"?>
<svg width="16px" height="16px" viewBox="0 0 16 16" version="1.1" xmlns="http://www.w3.org/2000/svg" xmlns:xlink="http://www.w3.org/1999/xlink">
    <title>Group</title>
    <desc>Created with Sketch.</desc>
    <defs>
        <linearGradient x1="-4.25096101%" y1="50.0000913%" x2="104.118142%" y2="50.0000913%" id="linearGradient-1">
            <stop stop-color="#3347A3" offset="0%"></stop>
            <stop stop-color="#08F1B8" offset="100%"></stop>
        </linearGradient>
    </defs>
    <g id="Page-1" stroke="none" stroke-width="1" fill="none" fill-rule="evenodd">
        <g id="Artboard">
            <g id="Group">
                <circle id="Oval" fill="#FFFFFF" cx="8" cy="8" r="8"></circle>
                <g id="7483-final" transform="translate(2.000000, 4.000000)" fill="url(#linearGradient-1)" fill-rule="nonzero">
                    <path d="M10.0944882,3.15159055 L8.54885039,3.65165354 L9.01587402,4.46056693 L10.0944882,4.11159055 L10.0944882,3.15159055 L10.0944882,3.15159055 Z M3.79527559,5.33858268 L8.20472441,5.33858268 L8.20472441,4.39370079 L3.79527559,4.39370079 L3.79527559,5.33858268 Z M1.90551181,4.11155906 L2.98412598,4.46053543 L3.45114961,3.65162205 L1.90551181,3.15159055 L1.90551181,4.11155906 Z M10.9966299,1.97874016 L11.1191811,1.90551181 L11.9853228,1.90551181 L11.4397795,0.960629921 L10.9685039,0.960629921 L10.8178583,0.960629921 L10.6950236,1.04784252 L10.0645984,1.4816063 L9.04573228,0.580251969 C8.64107087,0.216787402 8.11637795,0.0157480315 7.57247244,0.0157480315 L4.42752756,0.0157480315 C3.88362205,0.0157480315 3.35892913,0.216787402 2.95426772,0.580251969 L1.93540157,1.4816063 L1.30500787,1.04784252 L1.18217323,0.960629921 L1.03149606,0.960629921 L0.560251969,0.960629921 L0.0147086614,1.90551181 L0.880850394,1.90551181 L1.00343307,1.97874016 C0.588472441,2.26869291 0.330708661,2.74740157 0.330708661,3.26970079 L0.330708661,6.91338583 L2.93725984,6.91338583 L3.48280315,5.96850394 L1.27559055,5.96850394 L1.27559055,3.26966929 C1.27559055,3.00714961 1.4384252,2.77212598 1.68422047,2.67987402 L1.93108661,2.58727559 C2.53811024,2.82866142 3.27804724,2.97914961 3.97392126,3.05814173 C4.728,3.14374803 5.46702362,3.16532283 6,3.16532283 C6.53300787,3.16532283 7.2720315,3.14371654 8.02607874,3.05814173 C8.72195276,2.97914961 9.46185827,2.82866142 10.0688819,2.58727559 L10.315748,2.67987402 C10.5615748,2.77212598 10.7244094,3.00714961 10.7244094,3.26966929 L10.7244094,5.96850394 L8.51719685,5.96850394 L9.06274016,6.91338583 L11.6692913,6.91338583 L11.6692913,3.26970079 C11.6692913,2.74740157 11.4115276,2.26869291 10.9966299,1.97874016 Z M7.91946457,2.11933858 C7.21222047,2.19962205 6.51111811,2.22047244 6,2.22047244 C5.48891339,2.22047244 4.78777953,2.19962205 4.08050394,2.11933858 C3.66116535,2.07168504 3.252,1.99070866 2.88453543,1.8991811 L3.58566929,1.2832126 C3.81688189,1.07549606 4.11672441,0.960629921 4.42752756,0.960629921 L7.57247244,0.960629921 C7.88327559,0.960629921 8.18314961,1.07549606 8.41433071,1.2832126 L9.11549606,1.8991811 C8.748,1.99070866 8.33883465,2.07171654 7.91946457,2.11933858 Z" id="Shape"></path>
                </g>
            </g>
        </g>
    </g>
</svg>